<svg width="100%" height="100%" viewBox="0 0 512 512" version="1.1" xmlns="http://www.w3.org/2000/svg" style="fill-rule:evenodd;clip-rule:evenodd;stroke-linecap:round;stroke-linejoin:round;">
    <g transform="matrix(1,0,0,1,4.68862,26.6874)">
        <g transform="matrix(16.4803,0,0,16.4803,53.5472,33.3088)">
            <path d="M3,16.668L3,5.332C3,3.493 4.493,2 6.332,2L17.668,2C19.507,2 21,3.493 21,5.332L21,16.668C21,18.441 19.612,19.892 17.865,19.994L18.832,21.445C19.138,21.905 19.014,22.526 18.555,22.832C18.095,23.138 17.474,23.014 17.168,22.555L15.465,20L8.535,20L6.832,22.555C6.526,23.014 5.905,23.138 5.445,22.832C4.986,22.526 4.862,21.905 5.168,21.445L6.135,19.994C4.388,19.892 3,18.441 3,16.668ZM11,4L6.332,4C5.597,4 5,4.597 5,5.332L5,10L11,10L11,4ZM19,10L19,5.332C19,4.597 18.403,4 17.668,4L13,4L13,10L19,10ZM5,12L5,16.668C5,17.403 5.597,18 6.332,18L17.668,18C18.403,18 19,17.403 19,16.668L19,12L5,12Z" style="fill:rgb(251,191,36);"/>
        </g>
        <g transform="matrix(16.4803,0,0,16.4803,53.5472,33.3088)">
            <path d="M8,15L8.01,15" style="fill:none;fill-rule:nonzero;stroke:rgb(251,191,36);stroke-width:2px;"/>
        </g>
        <g transform="matrix(16.4803,0,0,16.4803,53.5472,33.3088)">
            <path d="M16,15L16.01,15" style="fill:none;fill-rule:nonzero;stroke:rgb(251,191,36);stroke-width:2px;"/>
        </g>
    </g>
</svg>
